PathFileType	4	(X/Y/Z)	C:/Users/beibeiliu/ov580/test_trc/User2\sequence.39.1_training_dense_left.trc
DataRate	CameraRate	NumFrames	NumMarkers	Units	OrigDataRate	OrigDataStartFrame	OrigNumFrames
120	120	11	19	mm	120	30	89
Frame#	Time	ThumbCMC			ThumbMCP			ThumbIP			ThumbTip			IndexMCP			IndexPIP			IndexTip			MiddleMCP			MiddlePIP			MiddleTip			RingMCP			RingPIP			RingTip			PinkyMCP			PinkyPIP			PinkyTip			BackHand1			BackHand2			BackHand3	
		X0	Y0	Z0	X1	Y1	Z1	X2	Y2	Z2	X3	Y3	Z3	X4	Y4	Z4	X5	Y5	Z5	X6	Y6	Z6	X7	Y7	Z7	X8	Y8	Z8	X9	Y9	Z9	X10	Y10	Z10	X11	Y11	Z11	X12	Y12	Z12	X13	Y13	Z13	X14	Y14	Z14	X15	Y15	Z15	X16	Y16	Z16	X17	Y17	Z17	X18	Y18	Z18	
29	0.241667	-186.679	30.9887	-13.135	-173.802	48.3405	-36.0569	-160.655	68.485	-62.5752	-145.687	74.8704	-82.9065	-178.018	15.718	-97.5401	-161.725	20.6506	-124.399	-133.577	22.9489	-143.311	-172.237	-8.92363	-106.906	-146.578	-5.67592	-131.255	-110.442	-1.84508	-142.004	-152.29	-28.5853	-95.6565	-122.586	-25.2044	-104.701	-92.5442	-18.2283	-96.4382	-145.071	-43.7634	-75.301	-113.041	-36.2488	-77.0951	-91.5752	-20.5189	-67.5581	-196.714	-31.094	-45.5336	-207.439	-32.904	-15.2309	-208.337	1.28589	-31.7706	
30	0.25	-187.939	26.9968	-17.4119	-177.011	51.3372	-37.9665	-161.325	62.4952	-62.1543	-147.43	70.1432	-85.7767	-178.978	18.1485	-102.138	-160.094	15.2001	-123.211	-121.982	16.221	-129.123	-171.514	-9.0405	-104.364	-138.649	-6.17191	-126.151	-103.71	-2.02647	-115.371	-151.715	-28.362	-98.0474	-118.927	-24.4543	-100.373	-97.5189	-7.76186	-79.2081	-143.737	-44.819	-77.7329	-114.79	-35.689	-75.857	-95.9881	-14.7303	-55.1241	-197.215	-36.8843	-50.4043	-208.618	-36.8205	-15.7135	-209.265	-1.97114	-34.0282	
31	0.258333	-190.317	27.866	-15.0335	-178.22	52.5926	-36.6145	-164.67	62.7593	-62.464	-151.261	73.7057	-85.0693	-175.757	15.4637	-101.845	-150.627	19.6159	-118.972	-117.173	22.5436	-104.267	-165.961	-3.74695	-107.344	-130.328	0.855846	-114.294	-105.452	7.73594	-84.5476	-152.969	-27.6243	-96.1662	-123.551	-18.8802	-98.341	-109.467	-5.60219	-65.8355	-147.57	-46.0039	-78.5996	-114.023	-32.4921	-76.0785	-109.406	-15.7459	-51.9948	-198.115	-35.1154	-50.155	-208.787	-35.1258	-15.7254	-209.319	2.4026	-34.718	
32	0.266667	-190.706	29.6411	-17.4954	-178.545	51.3312	-36.8744	-163.655	66.8303	-64.762	-149.539	68.4956	-87.3002	-174.982	20.6105	-98.3275	-141.686	21.8665	-110.267	-120.125	24.2682	-81.4382	-163.208	-3.62703	-102.707	-126.179	3.16834	-104.689	-117.678	10.1476	-65.6995	-152.223	-21.6262	-96.814	-121.491	-15.0169	-93.0318	-121.457	-4.57549	-57.5695	-145.289	-43.4223	-80.5916	-118.189	-24.4158	-74.9105	-124.67	-12.7092	-44.0089	-197.082	-34.9982	-52.024	-208.132	-34.5277	-16.67	-208.45	-3.1542	-34.3211	
33	0.275	-190.879	34.1008	-17.5457	-174.441	54.2018	-39.781	-155.453	64.1527	-70.5079	-140.577	62.2583	-87.6667	-168.592	19.3137	-98.0546	-135.802	23.0955	-102.65	-127.156	26.3576	-66.9986	-157.37	1.4639	-102.956	-123.386	6.74157	-96.5613	-124.269	10.9392	-57.6788	-146.27	-17.3141	-96.0983	-119.91	-10.2529	-85.8185	-131.809	-4.06145	-50.1098	-140.314	-38.6579	-83.363	-118.531	-20.2181	-69.7199	-129.269	-14.9571	-40.1086	-196.51	-30.0936	-53.4488	-207.245	-33.4525	-22.4444	-209.922	-1.04997	-37.6073	
34	0.283333	-186.285	33.0968	-17.3063	-165.46	55.2453	-37.695	-144.891	58.3136	-65.6602	-128.91	47.9673	-86.9805	-164.831	23.3039	-96.1929	-129.552	24.8962	-92.7863	-129.595	25.0698	-60.5717	-152.691	3.0487	-102.163	-119.221	7.40404	-88.4075	-131.006	11.7449	-49.6995	-143.48	-18.6661	-94.0959	-117.307	-5.38037	-79.1561	-136.366	-4.36524	-46.8184	-142.046	-38.1805	-79.2105	-116.557	-18.7268	-64.4637	-136.306	-14.0326	-38.9214	-194.685	-28.6636	-53.3826	-206.329	-33.3364	-18.5873	-207.113	-0.382236	-37.448	
35	0.291667	-183.643	35.1627	-14.407	-162.368	53.0039	-39.9014	-141.557	54.2247	-64.7659	-124.805	41.9302	-84.7941	-161.203	25.9551	-95.8703	-127.053	30.5477	-87.3423	-133.128	27.3834	-55.6459	-148.876	0.200345	-99.4639	-118.482	10.0355	-83.703	-131.511	13.8634	-46.7434	-140.37	-18.0764	-91.3986	-115.775	-5.67792	-73.2604	-136.931	-2.97123	-45.9661	-135.746	-34.7216	-80.3282	-116.262	-17.2797	-59.0478	-136.459	-17.2316	-36.3555	-193.203	-30.5183	-54.9347	-205.719	-34.2519	-20.2126	-204.816	1.20495	-34.1523	
36	0.3	-184.623	35.7265	-14.3462	-163.7	52.1234	-38.8394	-142.631	54.6451	-64.196	-124.366	46.7668	-88.1019	-158.907	23.0555	-93.4181	-128.419	26.6065	-88.5926	-135.896	24.16	-52.4885	-150.736	2.63831	-96.3759	-118.828	11.4375	-82.7774	-133.41	8.93327	-44.2694	-141.255	-17.0758	-88.1563	-116.55	-6.46555	-72.7102	-143.252	-2.73017	-42.7272	-135.431	-31.0705	-76.7857	-118.776	-15.8035	-56.29	-142.528	-17.8602	-32.9601	-192.318	-32.3328	-50.8832	-205.751	-33.0883	-20.6483	-205.005	1.35143	-34.0704	
37	0.308333	-185.316	33.927	-16.2841	-166.689	52.606	-40.3489	-146.117	56.769	-64.3141	-128.563	50.5813	-88.2437	-156.411	24.0039	-94.7492	-127.985	28.2752	-84.7734	-139.237	29.3556	-50.9057	-151.575	1.26723	-93.8	-119.569	9.53587	-78.701	-137.432	8.3122	-43.2195	-140.185	-17.4042	-86.6265	-118.043	-2.6196	-66.3878	-145.224	-6.179	-39.4216	-138.554	-34.8288	-74.7232	-117.943	-18.0892	-52.7546	-142.035	-13.1146	-33.3978	-194.145	-27.7102	-48.8831	-205.598	-36.2896	-19.0149	-207.022	5.19723	-35.5064	
38	0.316667	-187.202	31.4709	-16.2307	-169.34	55.4919	-38.7213	-149.977	59.7175	-68.2165	-133.466	51.3691	-86.3569	-161.786	25.0197	-93.0348	-129.337	32.2997	-84.0965	-140.996	27.1903	-50.4372	-152.535	6.5087	-93.9527	-120.669	10.6533	-75.5375	-143.982	9.28176	-40.6346	-139.684	-12.5262	-86.4296	-118.355	-3.42108	-65.6439	-144.502	-3.79493	-39.8657	-136.721	-30.5795	-73.8893	-118.815	-17.8281	-50.5924	-148.269	-17.4216	-29.2869	-192.567	-30.9949	-49.8946	-206.529	-31.1771	-19.6114	-209.205	4.80424	-34.9186	
39	0.325	-188.329	29.851	-16.4613	-173.594	49.9629	-37.795	-155.457	57.5887	-72.2851	-139.686	52.0034	-96.0265	-157.94	24.8518	-94.8992	-130.783	29.8437	-86.3613	-143.878	27.9868	-49.6822	-148.595	1.97675	-94.3568	-121.9	9.80905	-72.2215	-142.744	7.99989	-41.2324	-141.153	-12.5531	-85.749	-120.303	-4.64634	-63.0966	-148.675	-6.74108	-38.0471	-135.02	-30.9068	-73.8674	-121.646	-16.6337	-48.5847	-150.985	-18.5011	-31.8179	-195.92	-28.8926	-51.6228	-205.617	-34.5267	-19.7054	-209.325	4.5402	-32.7383	
